<svg width="88" height="88" viewBox="0 0 88 88" fill="none" xmlns="http://www.w3.org/2000/svg">
<g style="mix-blend-mode:multiply" opacity="0.3">
<path fill-rule="evenodd" clip-rule="evenodd" d="M82 30.0339H56.3333V26.3672H82V30.0339Z" fill="#65184E"/>
</g>
<g style="mix-blend-mode:multiply" opacity="0.3">
<path fill-rule="evenodd" clip-rule="evenodd" d="M82 41.0339H56.3333V37.3672H82V41.0339Z" fill="#65184E"/>
</g>
<g style="mix-blend-mode:multiply" opacity="0.3">
<path fill-rule="evenodd" clip-rule="evenodd" d="M82 52.0339L63.6667 52.0339L63.6667 48.3672L82 48.3672L82 52.0339Z" fill="#65184E"/>
</g>
<g style="mix-blend-mode:multiply" opacity="0.3">
<path d="M44.9666 53.1338C43.8666 58.2671 39.4666 62.3005 33.9666 62.3005C28.4666 62.3005 24.0666 58.2671 22.9666 53.1338C14.1666 54.9671 6.83331 59.0005 6.83331 71.1005H61.1C61.1 59.0005 53.4 54.9671 44.9666 53.1338Z" fill="#65184E"/>
</g>
<path fill-rule="evenodd" clip-rule="evenodd" d="M16 32.9667C16 23.1815 23.7604 15 33.9667 15C43.7792 15 51.9333 23.1541 51.9333 32.9667C51.9333 42.7792 43.7792 50.9333 33.9667 50.9333C23.7604 50.9333 16 42.7519 16 32.9667ZM33.9667 18.6667C25.8396 18.6667 19.6667 25.1519 19.6667 32.9667C19.6667 40.7815 25.8396 47.2667 33.9667 47.2667C41.7541 47.2667 48.2667 40.7541 48.2667 32.9667C48.2667 25.1792 41.7541 18.6667 33.9667 18.6667Z" fill="#65184E"/>
<path fill-rule="evenodd" clip-rule="evenodd" d="M8.73554 69.2674H59.1978C58.9633 66.2429 58.1449 63.8941 56.966 62.0511C55.5573 59.8487 53.5541 58.244 51.1363 57.0767C46.2243 54.7054 39.81 54.234 33.9667 54.234C28.1234 54.234 21.709 54.7054 16.797 57.0767C14.3792 58.244 12.376 59.8487 10.9673 62.0511C9.78844 63.8941 8.96999 66.2429 8.73554 69.2674ZM15.203 53.7747C20.9243 51.0127 28.0766 50.5674 33.9667 50.5674C39.8567 50.5674 47.009 51.0127 52.7304 53.7747C55.6292 55.1741 58.2094 57.1902 60.0548 60.0753C61.9019 62.9631 62.9333 66.5971 62.9333 71.1007V72.9341H5V71.1007C5 66.5971 6.0314 62.9631 7.8785 60.0753C9.72396 57.1902 12.3041 55.1741 15.203 53.7747Z" fill="#65184E"/>
</svg>
