<svg width="75" height="70" viewBox="0 0 75 70" fill="none" xmlns="http://www.w3.org/2000/svg">
<path fill-rule="evenodd" clip-rule="evenodd" d="M0 2.04604C0 0.916041 0.92249 0 2.06044 0H19.7802C20.3267 0 20.8508 0.215564 21.2372 0.59927L28.4634 7.77494H72.9396C74.0775 7.77494 75 8.69098 75 9.82097V67.5192C75 68.6492 74.0775 69.5652 72.9396 69.5652H2.06044C0.92249 69.5652 0 68.6492 0 67.5192V2.04604ZM4.12088 4.09207V65.4731H70.8791V11.867H27.6099C27.0634 11.867 26.5393 11.6514 26.1529 11.2677L18.9268 4.09207H4.12088Z" fill="#65184E"/>
<path opacity="0.3" fill-rule="evenodd" clip-rule="evenodd" d="M70.6522 4.34783H29.3478L25 0H68.3397C69.6168 0 70.6522 1.03534 70.6522 2.3125V4.34783Z" fill="#65184E"/>
<path opacity="0.3" d="M66.3044 17.3911H8.69568V60.8694H66.3044V17.3911Z" fill="#65184E"/>
</svg>
