<svg width="71" height="81" viewBox="0 0 71 81" fill="none" xmlns="http://www.w3.org/2000/svg">
<path fill-rule="evenodd" clip-rule="evenodd" d="M3.66667 3.66667V76.6333H55V3.66667H3.66667ZM0.995304 0.995304C1.52761 0.463003 2.33708 0 3.3 0H55.3667C56.3296 0 57.1391 0.463003 57.6714 0.995305C58.2037 1.52761 58.6667 2.33708 58.6667 3.3V77C58.6667 77.9629 58.2037 78.7724 57.6714 79.3047C57.1391 79.837 56.3296 80.3 55.3667 80.3H3.3C2.33708 80.3 1.52761 79.837 0.995305 79.3047C0.463004 78.7724 0 77.9629 0 77V3.3C0 2.33707 0.463003 1.5276 0.995304 0.995304Z" fill="#65184E"/>
<path opacity="0.3" fill-rule="evenodd" clip-rule="evenodd" d="M47.3 21.633H11V17.9663H47.3V21.633Z" fill="#65184E"/>
<path opacity="0.3" fill-rule="evenodd" clip-rule="evenodd" d="M47.3 32.633H11V28.9663H47.3V32.633Z" fill="#65184E"/>
<path opacity="0.3" fill-rule="evenodd" clip-rule="evenodd" d="M47.3 44.0002H11V40.3335H47.3V44.0002Z" fill="#65184E"/>
<path opacity="0.3" fill-rule="evenodd" clip-rule="evenodd" d="M33.3667 55.3664H11V51.6997H33.3667V55.3664Z" fill="#65184E"/>
<path fill-rule="evenodd" clip-rule="evenodd" d="M40.3334 66.0002H29.3334V62.3335H40.3334V66.0002Z" fill="#65184E"/>
<path d="M42.3334 65.2665L44.5334 59.3999L66.5334 37.0332L70.5667 41.0665L48.2 63.4332L42.3334 65.2665Z" fill="#65184E"/>
</svg>
