<svg width="69" height="81" viewBox="0 0 69 81" fill="none" xmlns="http://www.w3.org/2000/svg">
<path fill-rule="evenodd" clip-rule="evenodd" d="M3.66667 3.66667V76.6333H55V3.66667H3.66667ZM0.995304 0.995304C1.52761 0.463003 2.33708 0 3.3 0H55.3667C56.3296 0 57.1391 0.463003 57.6714 0.995305C58.2037 1.52761 58.6667 2.33708 58.6667 3.3V77C58.6667 77.9629 58.2037 78.7724 57.6714 79.3047C57.1391 79.837 56.3296 80.3 55.3667 80.3H3.3C2.33708 80.3 1.52761 79.837 0.995305 79.3047C0.463004 78.7724 0 77.9629 0 77V3.3C0 2.33707 0.463003 1.5276 0.995304 0.995304Z" fill="#65184E"/>
<path opacity="0.3" fill-rule="evenodd" clip-rule="evenodd" d="M47.3 21.633H11V17.9663H47.3V21.633Z" fill="#65184E"/>
<path opacity="0.3" fill-rule="evenodd" clip-rule="evenodd" d="M47.3 32.633H11V28.9663H47.3V32.633Z" fill="#65184E"/>
<path opacity="0.3" fill-rule="evenodd" clip-rule="evenodd" d="M47.3 44.0002H11V40.3335H47.3V44.0002Z" fill="#65184E"/>
<path opacity="0.3" fill-rule="evenodd" clip-rule="evenodd" d="M33.3667 55.3659H11V51.6992H33.3667V55.3659Z" fill="#65184E"/>
<path opacity="0.3" d="M33.7334 63.4328C42.2386 63.4328 49.1334 56.538 49.1334 48.0328C49.1334 39.5276 42.2386 32.6328 33.7334 32.6328C25.2282 32.6328 18.3334 39.5276 18.3334 48.0328C18.3334 56.538 25.2282 63.4328 33.7334 63.4328Z" fill="#65184E"/>
<path fill-rule="evenodd" clip-rule="evenodd" d="M33.7333 34.4665C26.2407 34.4665 20.1667 40.5405 20.1667 48.0331C20.1667 55.5258 26.2407 61.5998 33.7333 61.5998C41.226 61.5998 47.3 55.5258 47.3 48.0331C47.3 40.5405 41.226 34.4665 33.7333 34.4665ZM16.5 48.0331C16.5 38.5154 24.2156 30.7998 33.7333 30.7998C43.251 30.7998 50.9667 38.5154 50.9667 48.0331C50.9667 57.5508 43.251 65.2665 33.7333 65.2665C24.2156 65.2665 16.5 57.5508 16.5 48.0331Z" fill="#65184E"/>
<path fill-rule="evenodd" clip-rule="evenodd" d="M66.9806 69.4558L45.3473 58.0892L47.0528 54.8433L68.6861 66.2099L66.9806 69.4558Z" fill="#65184E"/>
</svg>
